<?xml version="1.0" ?><!-- Uploaded to: SVG Repo, www.svgrepo.com, Generator: SVG Repo Mixer Tools -->
<svg width="800px" height="800px" viewBox="0 0 30 30" xmlns="http://www.w3.org/2000/svg"><path d="M34.8031183,24.9496667 C34.5392497,24.732203 34.3835565,24.4058265 34.3782712,24.0590689 C34.3729859,23.7123113 34.5186566,23.3811202 34.7757691,23.1553333 L36.1569042,21.9443333 C36.3630008,21.762767 36.6257165,21.6626284 36.897612,21.662 L39.860443,21.662 C40.2920729,21.662 40.6866572,21.4123306 40.8796879,21.0170825 C41.0727186,20.6218345 41.0310613,20.1488539 40.7720834,19.7953333 C39.2693823,17.7366242 36.7800373,16.6944051 34.2989159,17.0851991 C31.8177945,17.4759931 29.7495509,19.2360644 28.9207591,21.662 L18.9633676,21.662 C18.0057413,18.8721799 15.4337647,17.003895 12.5454197,17 C10.4729982,17.0737809 8.53840461,18.0816039 7.26018486,19.7533333 C6.97963862,20.1018334 6.92074524,20.584796 7.10899139,20.9932144 C7.29723754,21.4016329 7.69880739,21.6621404 8.13991778,21.662 L10.9842356,21.662 C11.2561311,21.6626284 11.5188468,21.762767 11.7249434,21.9443333 L13.1060785,23.1553333 C13.363191,23.3811202 13.5088616,23.7123113 13.5035764,24.0590689 C13.4982911,24.4058265 13.3425978,24.732203 13.0787293,24.9496667 L11.7112688,26.072 C11.5089455,26.2381827 11.257299,26.3287252 10.9979102,26.3286667 L8.13991778,26.3286667 C7.69880739,26.3285262 7.29723754,26.5890338 7.10899139,26.9974522 C6.92074524,27.4058707 6.97963862,27.8888333 7.26018486,28.2373333 C8.53600326,29.9133297 10.4712358,30.924903 12.5454197,31 C15.4349502,30.9954082 18.0072824,29.1249946 18.9633676,26.3333333 L28.91848,26.3333333 C29.7460055,28.7604763 31.8144365,30.521837 34.2962454,30.9127393 C36.7780543,31.3036416 39.2679564,30.2602503 40.7698043,28.2 C41.0287822,27.8464794 41.0704395,27.3734988 40.8774088,26.9782508 C40.6843781,26.5830028 40.2897938,26.3333333 39.8581639,26.3333333 L36.8771,26.3333333 C36.6177113,26.3333919 36.3660647,26.2428494 36.1637415,26.0766667 L34.8031183,24.9496667 Z" fill="#4A4A4A" fill-rule="evenodd" transform="rotate(-45 8.636 30.364)"/></svg>